<?xml version="1.0" standalone="no"?>
<!DOCTYPE svg PUBLIC "-//W3C//DTD SVG 20010904//EN"
 "http://www.w3.org/TR/2001/REC-SVG-20010904/DTD/svg10.dtd">
<svg version="1.0" xmlns="http://www.w3.org/2000/svg"
 width="300.000000pt" height="300.000000pt" viewBox="0 0 300.000000 300.000000"
 preserveAspectRatio="xMidYMid meet">
<metadata>
Created by potrace 1.11, written by Peter Selinger 2001-2013
</metadata>
<g transform="translate(0.000000,300.000000) scale(0.100000,-0.100000)"
fill="#000000" stroke="none">
<path d="M0 1500 l0 -1500 1500 0 1500 0 0 1500 0 1500 -1500 0 -1500 0 0
-1500z m1972 1217 c15 -28 28 -130 37 -282 4 -71 11 -139 16 -149 6 -14 5 -17
-3 -12 -7 4 -12 2 -12 -5 0 -7 -6 -5 -14 6 -13 18 -14 18 -45 -4 -17 -12 -31
-25 -31 -27 0 -3 25 -35 55 -70 30 -36 55 -74 55 -84 0 -28 -19 -65 -77 -155
-77 -117 -93 -137 -111 -130 -13 5 -13 3 -1 -12 7 -10 30 -36 51 -59 31 -33
45 -61 73 -153 48 -155 47 -165 -12 -185 -26 -9 -54 -16 -62 -16 -34 0 -39
-17 -51 -151 l-12 -136 32 -74 c21 -47 41 -120 56 -204 12 -71 31 -171 42
-221 22 -108 17 -134 -28 -134 -25 0 -30 -4 -30 -25 0 -13 5 -35 11 -49 17
-37 4 -91 -27 -105 -14 -6 -29 -9 -34 -6 -4 2 -19 -4 -34 -16 -59 -46 -151
-29 -144 28 2 14 12 31 23 37 11 6 41 26 68 44 37 26 47 40 47 61 0 23 -6 30
-31 37 -59 17 -65 74 -10 82 14 2 21 9 17 17 -3 8 -24 80 -46 162 -23 81 -50
173 -60 204 -33 98 -60 254 -60 343 l0 86 -27 2 c-47 2 -50 3 -65 16 -8 6 -18
9 -21 5 -24 -23 20 223 58 327 19 50 31 165 22 202 -5 18 -17 26 -54 35 -26 6
-49 10 -51 8 -1 -1 2 -14 8 -29 11 -30 13 -76 4 -100 -8 -22 -54 -20 -84 4
-14 11 -28 20 -32 20 -10 0 -9 -89 1 -173 8 -58 6 -78 -10 -124 -10 -31 -19
-69 -19 -85 0 -18 -5 -28 -15 -28 -22 0 -34 39 -24 75 13 45 11 54 -12 48 -33
-9 -33 -28 -1 -126 47 -142 53 -197 55 -544 l2 -323 35 -31 c19 -18 53 -40 76
-51 52 -23 68 -41 60 -72 -9 -36 -48 -40 -140 -16 -154 41 -164 51 -130 128
20 44 20 46 10 136 -4 38 -12 64 -17 59 -16 -16 -89 -223 -89 -252 0 -31 38
-63 92 -76 14 -4 34 -15 43 -25 15 -16 15 -22 3 -47 -10 -21 -21 -29 -48 -31
-36 -4 -182 23 -212 40 -26 13 -22 43 15 117 36 71 42 91 82 280 15 69 38 154
51 190 32 83 29 98 -40 259 -30 70 -58 141 -61 157 -4 17 -21 57 -37 90 -28
55 -30 66 -25 133 5 70 7 74 57 129 67 76 76 109 60 215 -7 46 -13 111 -14
146 l-1 62 -35 0 c-19 0 -40 4 -46 8 -15 9 -67 150 -66 180 0 32 10 54 22 47
5 -3 17 -30 25 -59 16 -55 46 -93 64 -81 7 4 6 15 -4 35 -8 16 -15 36 -15 45
0 8 -6 14 -12 12 -18 -3 -11 128 9 171 28 58 56 72 144 71 92 -1 133 -21 156
-76 18 -44 12 -110 -15 -157 -10 -17 -17 -40 -15 -52 4 -19 8 -20 50 -14 25 4
54 5 64 3 10 -3 33 0 51 6 40 14 182 41 221 41 15 0 27 5 27 11 0 6 -7 8 -16
5 -20 -8 -84 41 -84 64 0 10 -13 29 -29 42 -78 63 -83 193 -9 239 65 40 151
55 198 35 10 -4 19 2 25 16 6 12 25 33 43 45 32 21 35 21 58 6 14 -9 30 -25
36 -36z"/>
<path d="M1855 2418 c-8 -28 -13 -54 -10 -56 5 -6 24 41 32 81 9 46 -5 30 -22
-25z"/>
<path d="M1340 2125 c0 -2 13 -11 29 -19 26 -14 30 -14 35 0 9 24 9 24 -29 24
-19 0 -35 -2 -35 -5z"/>
<path d="M1843 2053 c-17 -32 -34 -76 -38 -98 -3 -22 -8 -51 -11 -63 -3 -15
-1 -21 5 -17 15 9 76 102 102 157 19 39 20 49 9 62 -21 26 -34 18 -67 -41z"/>
<path d="M1370 2025 c7 -9 15 -13 17 -11 7 7 -7 26 -19 26 -6 0 -6 -6 2 -15z"/>
</g>
</svg>
